<svg version="1.1" id="Layer_1" xmlns="http://www.w3.org/2000/svg" xmlns:xlink="http://www.w3.org/1999/xlink" x="0px" y="0px"
	 width="100%" viewBox="0 0 50 50" enable-background="new 0 0 50 50" xml:space="preserve">
<path fill="#000000" opacity="1.000000" stroke="none" 
	d="
M9.000000,51.000000 
	C6.339423,51.000000 3.678846,51.000000 1.013702,51.000000 
	C1.009135,34.377487 1.009135,17.754969 1.009135,1.066225 
	C17.584249,1.066225 34.168804,1.066225 50.876686,1.066225 
	C50.876686,17.545580 50.876686,34.092384 50.876686,51.000000 
	C39.981731,51.000000 28.959522,51.000000 17.131166,50.764694 
	C20.008657,44.676647 24.828333,41.609348 32.168701,42.881393 
	C36.042274,43.552658 40.128410,42.965824 44.117889,43.009563 
	C47.372135,43.045250 49.021591,41.579510 49.008820,38.247807 
	C48.977596,30.101753 48.978905,21.955431 49.008514,13.809367 
	C49.020462,10.522314 47.448860,8.985517 44.175125,8.991902 
	C32.039040,9.015578 19.902845,9.016971 7.766767,8.991316 
	C4.446480,8.984297 2.975717,10.608136 2.989585,13.867381 
	C3.024247,22.013405 3.022742,30.159754 2.991646,38.305805 
	C2.978769,41.678864 4.686188,43.089592 7.937989,43.015991 
	C9.214734,42.987095 10.495721,43.145607 11.891265,43.225437 
	C10.862933,45.990604 9.931466,48.495304 9.000000,51.000000 
z"/>
<path fill="#498DFF" opacity="1.000000" stroke="none" 
	d="
M9.444164,51.000000 
	C9.931466,48.495304 10.862933,45.990604 11.891265,43.225437 
	C10.495721,43.145607 9.214734,42.987095 7.937989,43.015991 
	C4.686188,43.089592 2.978769,41.678864 2.991646,38.305805 
	C3.022742,30.159754 3.024247,22.013405 2.989585,13.867381 
	C2.975717,10.608136 4.446480,8.984297 7.766767,8.991316 
	C19.902845,9.016971 32.039040,9.015578 44.175125,8.991902 
	C47.448860,8.985517 49.020462,10.522314 49.008514,13.809367 
	C48.978905,21.955431 48.977596,30.101753 49.008820,38.247807 
	C49.021591,41.579510 47.372135,43.045250 44.117889,43.009563 
	C40.128410,42.965824 36.042274,43.552658 32.168701,42.881393 
	C24.828333,41.609348 20.008657,44.676647 16.662510,50.764694 
	C14.629442,51.000000 12.258885,51.000000 9.444164,51.000000 
M46.963875,15.111117 
	C45.196121,13.741936 43.468803,11.253797 41.653938,11.188205 
	C31.184391,10.809815 20.693810,10.956637 10.211123,11.032102 
	C6.924745,11.055760 5.074666,12.956578 5.030071,16.237562 
	C4.941880,22.725983 4.946924,29.217148 5.027482,35.705761 
	C5.067951,38.965397 6.862441,41.144970 10.141311,40.911095 
	C15.020099,40.563110 15.653122,42.994534 14.312748,47.773003 
	C15.874664,46.404064 17.250607,45.797756 17.435383,44.936035 
	C18.420637,40.341187 21.819195,40.944485 25.099052,40.983501 
	C30.256737,41.044861 35.417191,40.922466 40.573658,41.022675 
	C45.123310,41.111088 47.129826,39.028206 47.032078,34.481052 
	C46.899792,28.327045 46.996563,22.168118 46.963875,15.111117 
z"/>
<path fill="#000000" opacity="1.000000" stroke="none" 
	d="
M46.979469,15.561209 
	C46.996563,22.168118 46.899792,28.327045 47.032078,34.481052 
	C47.129826,39.028206 45.123310,41.111088 40.573658,41.022675 
	C35.417191,40.922466 30.256737,41.044861 25.099052,40.983501 
	C21.819195,40.944485 18.420637,40.341187 17.435383,44.936035 
	C17.250607,45.797756 15.874664,46.404064 14.312748,47.773003 
	C15.653122,42.994534 15.020099,40.563110 10.141311,40.911095 
	C6.862441,41.144970 5.067951,38.965397 5.027482,35.705761 
	C4.946924,29.217148 4.941880,22.725983 5.030071,16.237562 
	C5.074666,12.956578 6.924745,11.055760 10.211123,11.032102 
	C20.693810,10.956637 31.184391,10.809815 41.653938,11.188205 
	C43.468803,11.253797 45.196121,13.741936 46.979469,15.561209 
M23.014299,24.654844 
	C23.096132,26.062313 23.177965,27.469782 23.270100,29.054434 
	C25.442688,28.950537 27.166798,28.868086 29.059965,28.777552 
	C28.952255,26.536203 28.869598,24.816187 28.763559,22.609634 
	C26.496115,23.067495 24.804853,23.409010 23.014299,24.654844 
M37.920742,28.550856 
	C38.350300,26.825878 38.779854,25.100899 39.218716,23.338551 
	C36.611885,23.338551 34.888401,23.338551 33.176620,23.338551 
	C33.176620,25.288870 33.176620,26.901222 33.176620,28.939447 
	C34.606415,28.939447 35.868614,28.939447 37.920742,28.550856 
M17.872978,23.394726 
	C16.335413,23.272293 14.797848,23.149862 13.312567,23.031593 
	C13.312567,25.389317 13.312567,27.128912 13.312567,28.856998 
	C17.235603,29.237757 20.243895,29.011265 17.872978,23.394726 
z"/>
<path fill="#4A8BFF" opacity="1.000000" stroke="none" 
	d="
M23.063946,24.202682 
	C24.804853,23.409010 26.496115,23.067495 28.763559,22.609634 
	C28.869598,24.816187 28.952255,26.536203 29.059965,28.777552 
	C27.166798,28.868086 25.442688,28.950537 23.270100,29.054434 
	C23.177965,27.469782 23.096132,26.062313 23.063946,24.202682 
z"/>
<path fill="#4A8CFF" opacity="1.000000" stroke="none" 
	d="
M37.525780,28.745152 
	C35.868614,28.939447 34.606415,28.939447 33.176620,28.939447 
	C33.176620,26.901222 33.176620,25.288870 33.176620,23.338551 
	C34.888401,23.338551 36.611885,23.338551 39.218716,23.338551 
	C38.779854,25.100899 38.350300,26.825878 37.525780,28.745152 
z"/>
<path fill="#498DFF" opacity="1.000000" stroke="none" 
	d="
M18.167543,23.701794 
	C20.243895,29.011265 17.235603,29.237757 13.312567,28.856998 
	C13.312567,27.128912 13.312567,25.389317 13.312567,23.031593 
	C14.797848,23.149862 16.335413,23.272293 18.167543,23.701794 
z"/>
</svg>